<svg version="1.0" xmlns="http://www.w3.org/2000/svg" width="267.000000ptpx" height="300.000000ptpx" viewBox="0 0 267.000000 300.000000" preserveAspectRatio="xMidYMid meet" transform="rotate(0) scale(1, 1)">
<metadata>
Created by potrace 1.10, written by Peter Selinger 2001-2011
</metadata>
<g transform="translate(0.000000,300.000000) scale(0.100000,-0.100000)" fill="#ffffff" stroke="none">
<path d="M990 2911 c-165 -44 -197 -55 -298 -104 -251 -123 -442 -309 -562&#10;-548 -60 -120 -73 -180 -68 -319 2 -89 6 -112 22 -129 20 -22 60 -28 71 -12 3&#10;6 10 58 16 118 18 191 44 273 135 414 54 86 193 227 278 283 158 104 330 177&#10;501 212 110 23 377 26 470 6 153 -34 287 -86 384 -150 198 -129 340 -288 446&#10;-500 89 -179 135 -382 135 -599 0 -341 -131 -650 -371 -878 -183 -174 -459&#10;-310 -689 -341 -138 -18 -164 -23 -156 -31 7 -7 125 -5 185 3 34 5 42 4 36 -6&#10;-10 -16 -15 -17 156 42 150 53 284 117 285 138 2 30 6 35 13 17 6 -16 14 -13&#10;71 29 91 66 240 221 300 312 90 136 172 328 198 462 6 30 14 96 17 147 6 77 4&#10;95 -9 108 -11 11 -16 35 -16 73 0 51 -22 201 -36 244 -2 9 0 19 5 22 12 8 18&#10;-12 31 -104 12 -82 18 -94 40 -80 13 8 12 10 -2 10 -20 0 -24 25 -7 35 6 4 14&#10;17 19 29 8 21 8 21 18 -4 10 -24 11 -24 11 -3 1 12 -6 29 -15 38 -19 19 -45&#10;111 -37 132 3 8 1 18 -4 22 -5 3 -28 41 -51 83 -79 148 -145 240 -167 231 -10&#10;-3 -15 1 -15 12 0 9 5 13 10 10 14 -9 13 -2 -13 57 -30 66 -73 118 -162 194&#10;-221 190 -447 285 -740 313 -113 11 -254 5 -362 -15 -20 -4 -33 -2 -33 4 0 36&#10;299 56 477 31 348 -47 655 -240 859 -540 90 -132 101 -145 110 -137 18 18&#10;-119 208 -233 323 -108 109 -209 184 -328 243 -210 105 -376 142 -620 141&#10;-152 0 -167 -2 -305 -38z m-20 -55 c0 -14 -29 -31 -38 -22 -2 3 -2 12 1 21 8&#10;19 37 20 37 1z m-65 -27 c0 -7 -8 -15 -17 -17 -18 -3 -25 18 -11 32 10 10 28&#10;1 28 -15z m-55 -19 c0 -5 -42 -29 -94 -54 -84 -39 -223 -122 -252 -150 -6 -6&#10;-32 -29 -59 -51 -61 -51 -153 -165 -207 -258 -53 -92 -82 -179 -97 -292 -16&#10;-123 -20 -137 -33 -129 -17 11 -3 209 20 274 57 163 170 320 322 450 14 12 35&#10;30 48 41 12 10 26 19 31 19 5 0 11 3 13 8 6 14 65 50 153 93 120 58 155 70&#10;155 49z m1230 -185 c17 -9 30 -20 30 -25 0 -16 -13 -11 -45 15 -34 28 -28 32&#10;15 10z m146 -126 c3 -6 3 -13 0 -16 -7 -7 -66 46 -66 60 0 9 56 -28 66 -44z&#10;m74 -96 c0 -20 -18 -15 -30 6 -15 28 -12 33 10 19 11 -7 20 -18 20 -25z m149&#10;-260 c12 -14 19 -28 16 -31 -6 -6 -55 38 -55 50 0 16 19 7 39 -19z m37 -104&#10;c20 -40 26 -69 16 -69 -6 0 -12 6 -15 13 -3 6 -13 29 -22 51 -12 29 -13 37 -3&#10;34 7 -3 18 -15 24 -29z"/>
<path d="M1215 2814 c-324 -31 -652 -203 -831 -435 -59 -77 -127 -207 -153&#10;-293 -23 -76 -26 -96 -11 -96 6 0 10 8 10 18 0 30 67 192 107 257 123 202 329&#10;369 561 454 145 53 254 73 402 73 242 0 450 -62 651 -195 92 -60 127 -92 237&#10;-211 39 -43 72 -75 72 -71 0 18 -94 137 -148 186 -146 136 -316 230 -492 274&#10;-36 9 -81 20 -100 25 -41 10 -247 19 -305 14z"/>
<path d="M694 2532 c-105 -77 -234 -215 -293 -314 -18 -30 -19 -38 -8 -38 8 0&#10;37 33 65 73 70 101 121 157 210 228 42 34 79 66 80 70 7 17 -15 9 -54 -19z"/>
<path d="M2049 2376 c13 -16 60 -30 69 -21 9 9 -32 34 -57 35 -19 0 -21 -3&#10;-12 -14z"/>
<path d="M1873 2288 c-10 -18 -90 -176 -178 -352 -142 -281 -175 -339 -190&#10;-325 -2 2 -20 60 -40 129 l-36 125 27 85 c14 47 39 121 55 166 35 97 35 96 7&#10;92 -19 -2 -28 -20 -56 -108 -19 -58 -37 -112 -39 -120 -4 -13 -5 -13 -13 0 -6&#10;8 -10 79 -10 157 0 78 -4 144 -9 147 -5 3 -14 -1 -21 -9 -15 -18 -8 -310 8&#10;-362 8 -26 5 -48 -18 -121 -15 -48 -31 -108 -35 -133 -11 -64 -21 -79 -55 -79&#10;-59 0 -245 -58 -358 -112 -46 -22 -86 -37 -89 -34 -3 3 2 43 12 88 9 46 23&#10;119 31 163 17 103 66 321 98 440 20 73 20 101 1 108 -17 7 -25 -3 -35 -47 -5&#10;-17 -21 -83 -38 -146 -16 -63 -37 -151 -47 -195 -9 -44 -23 -102 -30 -130 -7&#10;-27 -21 -102 -30 -165 -20 -139 -33 -190 -46 -190 -19 0 -28 -44 -12 -62 10&#10;-11 14 -30 10 -55 -2 -21 -10 -78 -16 -128 -26 -194 -28 -226 -15 -243 22 -29&#10;31 -3 49 133 9 72 22 162 29 200 l11 70 95 3 c120 4 216 -18 273 -62 47 -36&#10;48 -41 32 -219 -7 -75 -6 -87 7 -87 9 0 24 21 37 53 12 28 70 140 129 247 59&#10;107 114 210 121 228 7 17 16 32 20 32 3 0 27 -45 52 -100 55 -116 164 -311&#10;191 -340 20 -21 48 -27 48 -9 0 6 -13 30 -29 53 -39 57 -208 372 -222 414 -8&#10;25 -8 41 1 63 12 28 15 29 76 29 35 0 64 4 64 8 0 18 -26 32 -62 32 -38 0 -46&#10;7 -29 26 16 17 272 528 297 593 23 60 24 81 4 81 -4 0 -16 -15 -27 -32z m-441&#10;-586 c27 -100 28 -96 -22 -103 -25 -4 -47 -5 -49 -3 -4 3 23 135 35 173 7 22&#10;17 5 36 -67z m49 -145 c9 -20 1 -42 -59 -154 -39 -72 -89 -170 -113 -217 -65&#10;-133 -71 -100 -19 121 23 104 46 201 49 218 7 29 22 35 124 54 4 0 12 -9 18&#10;-22z m-185 -25 c-13 -39 -35 -132 -52 -219 -10 -51 -22 -93 -26 -93 -4 0 -19&#10;11 -33 25 -49 45 -218 82 -328 72 l-58 -5 3 31 c3 36 31 54 158 109 83 35 282&#10;96 318 97 18 1 22 -3 18 -17z"/>
<path d="M2120 2307 c0 -14 31 -47 43 -47 14 0 7 27 -11 43 -22 21 -32 21 -32&#10;4z"/>
<path d="M2250 2281 c0 -5 18 -24 40 -41 46 -37 51 -31 14 17 -23 31 -54 44&#10;-54 24z"/>
<path d="M2170 2239 c0 -19 37 -55 47 -45 4 3 -5 19 -20 34 -20 19 -27 22 -27&#10;11z"/>
<path d="M2272 2223 c2 -5 31 -65 66 -135 34 -70 62 -131 62 -135 0 -15 48&#10;-68 55 -61 3 3 -3 24 -14 47 -12 22 -21 53 -21 70 0 20 -9 37 -30 54 -30 26&#10;-39 47 -20 47 6 0 10 3 10 8 0 12 -91 112 -102 112 -5 0 -8 -3 -6 -7z"/>
<path d="M334 2105 c-7 -19 -14 -40 -14 -47 1 -20 50 44 50 65 0 29 -20 19&#10;-36 -18z"/>
<path d="M296 1944 c-7 -19 2 -37 15 -29 12 8 12 45 0 45 -5 0 -12 -7 -15 -16z"/>
<path d="M296 1853 c-8 -37 8 -81 19 -52 3 9 2 32 -3 50 l-9 34 -7 -32z"/>
<path d="M2420 1840 c0 -40 11 -49 38 -31 12 7 11 14 -2 40 -22 42 -36 39 -36&#10;-9z"/>
<path d="M2463 1635 c1 -85 5 -155 9 -155 3 0 9 23 13 50 8 60 -4 260 -16 260&#10;-4 0 -7 -70 -6 -155z"/>
<path d="M2608 1675 c-8 -15 -1 -225 9 -228 4 -1 9 27 11 63 3 71 -10 181 -20&#10;165z"/>
<path d="M2450 1351 c0 -15 -5 -42 -11 -60 -12 -33 -6 -52 11 -35 15 15 25&#10;124 11 124 -6 0 -11 -13 -11 -29z"/>
<path d="M2389 1163 c-16 -50 -83 -186 -110 -224 -28 -40 -14 -52 16 -15 28&#10;35 83 145 101 201 6 22 15 48 19 58 4 9 3 17 -3 17 -6 0 -16 -17 -23 -37z"/>
<path d="M2526 1118 c-7 -43 -4 -54 13 -43 13 7 15 72 2 79 -5 3 -11 -13 -15&#10;-36z"/>
<path d="M2425 919 c-22 -38 -33 -65 -27 -71 10 -10 58 66 68 109 10 38 -3 26&#10;-41 -38z"/>
<path d="M2292 739 c-51 -63 -60 -79 -44 -79 20 0 106 113 100 131 -2 6 -27&#10;-17 -56 -52z"/>
<path d="M1242 309 c-13 -5 -20 -13 -17 -19 8 -12 25 -13 45 0 23 14 0 30 -28&#10;19z"/>
<path d="M1239 94 c-22 -60 52 -102 87 -49 26 39 6 75 -41 75 -29 0 -37 -5&#10;-46 -26z"/>
</g>
</svg>